<?xml version="1.0" encoding="utf-8" standalone="no"?>
<!DOCTYPE svg PUBLIC "-//W3C//DTD SVG 1.1//EN"
  "http://www.w3.org/Graphics/SVG/1.1/DTD/svg11.dtd">
<svg height="288pt" version="1.1" viewBox="0 0 432 288" width="432pt" xmlns="http://www.w3.org/2000/svg" xmlns:xlink="http://www.w3.org/1999/xlink">
 <metadata>
  <rdf:RDF xmlns:cc="http://creativecommons.org/ns#" xmlns:dc="http://purl.org/dc/elements/1.1/" xmlns:rdf="http://www.w3.org/1999/02/22-rdf-syntax-ns#">
   <cc:Work>
    <dc:type rdf:resource="http://purl.org/dc/dcmitype/StillImage"/>
    <dc:date>2022-04-18T18:43:28.895834</dc:date>
    <dc:format>image/svg+xml</dc:format>
    <dc:creator>
     <cc:Agent>
      <dc:title>Matplotlib v3.4.3, https://matplotlib.org/</dc:title>
     </cc:Agent>
    </dc:creator>
   </cc:Work>
  </rdf:RDF>
 </metadata>
 <defs>
  <style type="text/css">*{stroke-linecap:butt;stroke-linejoin:round;}</style>
 </defs>
 <g id="figure_1">
  <g id="patch_1">
   <path d="M 0 288 
L 432 288 
L 432 0 
L 0 0 
z
" style="fill:none;"/>
  </g>
  <g id="axes_1">
   <g id="patch_2">
    <path d="M 221.767791 44.443636 
C 196.265052 44.443636 171.738613 54.375407 153.421366 72.119933 
C 135.10412 89.864458 124.398514 114.063143 123.588667 139.55302 
C 122.778821 165.042897 131.926738 189.872354 149.080645 208.743845 
C 166.234552 227.615336 190.081073 239.083979 215.532378 240.702856 
L 221.767791 142.6723 
L 221.767791 44.443636 
z
" style="fill:#ffffff;stroke:#808080;stroke-linejoin:miter;stroke-width:0.5;"/>
   </g>
   <g id="patch_3">
    <path d="M 215.532378 240.702856 
C 237.754959 242.116364 259.811105 235.932246 278.059488 223.171462 
C 296.307871 210.410678 309.685777 191.816365 315.984601 170.458324 
L 221.767791 142.6723 
L 215.532378 240.702856 
z
" style="stroke:#808080;stroke-linejoin:miter;stroke-width:0.5;"/>
   </g>
   <g id="patch_4">
    <path d="M 315.984601 170.458324 
C 317.204355 166.322383 318.150446 162.11061 318.816734 157.850345 
C 319.483021 153.590079 319.86806 149.29056 319.969351 144.979696 
L 221.767791 142.6723 
L 315.984601 170.458324 
z
" style="fill:#ff4500;stroke:#808080;stroke-linejoin:miter;stroke-width:0.5;"/>
   </g>
   <g id="patch_5">
    <path d="M 319.969351 144.979696 
C 320.021179 142.773886 319.998673 140.566956 319.90187 138.362662 
C 319.805066 136.158368 319.634021 133.957961 319.389025 131.765186 
L 221.767791 142.6723 
L 319.969351 144.979696 
z
" style="fill:#be0039;stroke:#808080;stroke-linejoin:miter;stroke-width:0.5;"/>
   </g>
   <g id="patch_6">
    <path d="M 319.389025 131.765186 
C 319.15812 129.698533 318.861646 127.639734 318.500052 125.591901 
C 318.138458 123.544068 317.711926 121.508234 317.221101 119.487477 
L 221.767791 142.6723 
L 319.389025 131.765186 
z
" style="fill:#811e9f;stroke:#808080;stroke-linejoin:miter;stroke-width:0.5;"/>
   </g>
   <g id="patch_7">
    <path d="M 317.221101 119.487477 
C 316.730401 117.467236 316.175688 115.463082 315.5578 113.478044 
C 314.939912 111.493005 314.259161 109.528084 313.516575 107.586248 
L 221.767791 142.6723 
L 317.221101 119.487477 
z
" style="fill:#51e9f4;stroke:#808080;stroke-linejoin:miter;stroke-width:0.5;"/>
   </g>
   <g id="patch_8">
    <path d="M 313.516575 107.586248 
C 312.824817 105.777325 312.079713 103.989257 311.282241 102.224387 
C 310.484768 100.459517 309.635276 98.718617 308.734878 97.003971 
L 221.767791 142.6723 
L 313.516575 107.586248 
z
" style="fill:#7eed56;stroke:#808080;stroke-linejoin:miter;stroke-width:0.5;"/>
   </g>
   <g id="patch_9">
    <path d="M 308.734878 97.003971 
C 307.88385 95.383342 306.987688 93.786818 306.047441 92.21627 
C 305.107195 90.645721 304.123231 89.101762 303.096703 87.5862 
L 221.767791 142.6723 
L 308.734878 97.003971 
z
" style="fill:#d4d7d9;stroke:#808080;stroke-linejoin:miter;stroke-width:0.5;"/>
   </g>
   <g id="patch_10">
    <path d="M 303.096703 87.5862 
C 302.198505 86.260104 301.268008 84.956174 300.306046 83.67558 
C 299.344084 82.394987 298.350945 81.138113 297.32752 79.906085 
L 221.767791 142.6723 
L 303.096703 87.5862 
z
" style="fill:#2450a4;stroke:#808080;stroke-linejoin:miter;stroke-width:0.5;"/>
   </g>
   <g id="patch_11">
    <path d="M 297.32752 79.906085 
C 296.318683 78.691619 295.280712 77.501651 294.214513 76.33722 
C 293.148314 75.172789 292.054196 74.034232 290.933113 72.922543 
L 221.767791 142.6723 
L 297.32752 79.906085 
z
" style="fill:#ff99aa;stroke:#808080;stroke-linejoin:miter;stroke-width:0.5;"/>
   </g>
   <g id="patch_12">
    <path d="M 290.933113 72.922543 
C 289.942469 71.940199 288.931009 70.979072 287.899422 70.039816 
C 286.867835 69.10056 285.816356 68.183387 284.745698 67.288922 
L 221.767791 142.6723 
L 290.933113 72.922543 
z
" style="fill:#ffd635;stroke:#808080;stroke-linejoin:miter;stroke-width:0.5;"/>
   </g>
   <g id="patch_13">
    <path d="M 284.745698 67.288922 
C 283.74186 66.450281 282.72137 65.631774 281.684839 64.833892 
C 280.648308 64.03601 279.595943 63.258912 278.528374 62.503063 
L 221.767791 142.6723 
L 284.745698 67.288922 
z
" style="fill:#ff3881;stroke:#808080;stroke-linejoin:miter;stroke-width:0.5;"/>
   </g>
   <g id="patch_14">
    <path d="M 278.528374 62.503063 
C 277.63542 61.870843 276.731966 61.253587 275.81839 60.651552 
C 274.904813 60.049517 273.981242 59.462787 273.048063 58.891609 
L 221.767791 142.6723 
L 278.528374 62.503063 
z
" style="fill:#00a368;stroke:#808080;stroke-linejoin:miter;stroke-width:0.5;"/>
   </g>
   <g id="patch_15">
    <path d="M 273.048063 58.891609 
C 272.214499 58.381404 271.373367 57.883667 270.524948 57.398564 
C 269.676529 56.913462 268.820918 56.441048 267.9584 55.981482 
L 221.767791 142.6723 
L 273.048063 58.891609 
z
" style="fill:#3690ea;stroke:#808080;stroke-linejoin:miter;stroke-width:0.5;"/>
   </g>
   <g id="patch_16">
    <path d="M 267.9584 55.981482 
C 267.165692 55.559111 266.367228 55.147633 265.563233 54.747163 
C 264.759238 54.346694 263.949788 53.957271 263.135111 53.579005 
L 221.767791 142.6723 
L 267.9584 55.981482 
z
" style="fill:#493ac1;stroke:#808080;stroke-linejoin:miter;stroke-width:0.5;"/>
   </g>
   <g id="patch_17">
    <path d="M 263.135111 53.579005 
C 262.339695 53.209681 261.539368 52.851027 260.734346 52.503137 
C 259.929324 52.155247 259.119679 51.818154 258.305629 51.491947 
L 221.767791 142.6723 
L 263.135111 53.579005 
z
" style="fill:#b44ac0;stroke:#808080;stroke-linejoin:miter;stroke-width:0.5;"/>
   </g>
   <g id="patch_18">
    <path d="M 258.305629 51.491947 
C 257.547264 51.188055 256.785137 50.893635 256.019425 50.608757 
C 255.253714 50.323879 254.484479 50.048565 253.711898 49.78288 
L 221.767791 142.6723 
L 258.305629 51.491947 
z
" style="fill:#ffa800;stroke:#808080;stroke-linejoin:miter;stroke-width:0.5;"/>
   </g>
   <g id="patch_19">
    <path d="M 253.711898 49.78288 
C 253.110002 49.575891 252.506107 49.374758 251.900301 49.179508 
C 251.294494 48.984258 250.686805 48.7949 250.077318 48.611463 
L 221.767791 142.6723 
L 253.711898 49.78288 
z
" style="fill:#00cc78;stroke:#808080;stroke-linejoin:miter;stroke-width:0.5;"/>
   </g>
   <g id="patch_20">
    <path d="M 250.077318 48.611463 
C 249.492231 48.435369 248.905513 48.264738 248.317242 48.099592 
C 247.728971 47.934447 247.139172 47.774794 246.547922 47.620654 
L 221.767791 142.6723 
L 250.077318 48.611463 
z
" style="fill:#898d90;stroke:#808080;stroke-linejoin:miter;stroke-width:0.5;"/>
   </g>
   <g id="patch_21">
    <path d="M 246.547922 47.620654 
C 245.961295 47.467719 245.373265 47.320218 244.783907 47.178171 
C 244.19455 47.036123 243.60389 46.899534 243.012003 46.768422 
L 221.767791 142.6723 
L 246.547922 47.620654 
z
" style="fill:#6d001a;stroke:#808080;stroke-linejoin:miter;stroke-width:0.5;"/>
   </g>
   <g id="patch_22">
    <path d="M 243.012003 46.768422 
C 242.478684 46.650283 241.944389 46.536596 241.409173 46.42737 
C 240.873957 46.318145 240.33784 46.213386 239.800876 46.113105 
L 221.767791 142.6723 
L 243.012003 46.768422 
z
" style="fill:#de107f;stroke:#808080;stroke-linejoin:miter;stroke-width:0.5;"/>
   </g>
   <g id="patch_23">
    <path d="M 239.800876 46.113105 
C 239.326011 46.02442 238.850498 45.93924 238.374377 45.857571 
C 237.898255 45.775902 237.421538 45.697747 236.944263 45.623111 
L 221.767791 142.6723 
L 239.800876 46.113105 
z
" style="fill:#6a5cff;stroke:#808080;stroke-linejoin:miter;stroke-width:0.5;"/>
   </g>
   <g id="patch_24">
    <path d="M 236.944263 45.623111 
C 236.538318 45.55963 236.131978 45.498696 235.725268 45.440314 
C 235.318559 45.381931 234.911486 45.326101 234.504076 45.272827 
L 221.767791 142.6723 
L 236.944263 45.623111 
z
" style="fill:#9c6926;stroke:#808080;stroke-linejoin:miter;stroke-width:0.5;"/>
   </g>
   <g id="patch_25">
    <path d="M 234.504076 45.272827 
C 234.184044 45.230978 233.863807 45.190707 233.543377 45.152015 
C 233.222948 45.113323 232.902329 45.076211 232.581534 45.040679 
L 221.767791 142.6723 
L 234.504076 45.272827 
z
" style="fill:#e4abff;stroke:#808080;stroke-linejoin:miter;stroke-width:0.5;"/>
   </g>
   <g id="patch_26">
    <path d="M 232.581534 45.040679 
C 232.266015 45.005732 231.950328 44.972315 231.634485 44.940428 
C 231.318642 44.908542 231.002646 44.878187 230.686509 44.849364 
L 221.767791 142.6723 
L 232.581534 45.040679 
z
" style="fill:#00756f;stroke:#808080;stroke-linejoin:miter;stroke-width:0.5;"/>
   </g>
   <g id="patch_27">
    <path d="M 230.686509 44.849364 
C 230.415308 44.824638 230.144005 44.80104 229.872607 44.77857 
C 229.601209 44.756101 229.32972 44.73476 229.058144 44.714548 
L 221.767791 142.6723 
L 230.686509 44.849364 
z
" style="fill:#ffb470;stroke:#808080;stroke-linejoin:miter;stroke-width:0.5;"/>
   </g>
   <g id="patch_28">
    <path d="M 229.058144 44.714548 
C 228.799275 44.695282 228.54033 44.677043 228.281315 44.65983 
C 228.022301 44.642616 227.763219 44.62643 227.504076 44.611271 
L 221.767791 142.6723 
L 229.058144 44.714548 
z
" style="fill:#fff8b8;stroke:#808080;stroke-linejoin:miter;stroke-width:0.5;"/>
   </g>
   <g id="patch_29">
    <path d="M 227.504076 44.611271 
C 227.253413 44.596608 227.002694 44.582906 226.751925 44.570166 
C 226.501157 44.557425 226.25034 44.545646 225.999481 44.534829 
L 221.767791 142.6723 
L 227.504076 44.611271 
z
" style="fill:#515252;stroke:#808080;stroke-linejoin:miter;stroke-width:0.5;"/>
   </g>
   <g id="patch_30">
    <path d="M 225.999481 44.534829 
C 225.802719 44.526345 225.605931 44.518452 225.409121 44.511151 
C 225.212311 44.503851 225.01548 44.497142 224.81863 44.491025 
L 221.767791 142.6723 
L 225.999481 44.534829 
z
" style="fill:#94b3ff;stroke:#808080;stroke-linejoin:miter;stroke-width:0.5;"/>
   </g>
   <g id="patch_31">
    <path d="M 224.81863 44.491025 
C 224.638758 44.485436 224.458872 44.480341 224.278973 44.47574 
C 224.099074 44.47114 223.919162 44.467034 223.73924 44.463422 
L 221.767791 142.6723 
L 224.81863 44.491025 
z
" style="fill:#6d482f;stroke:#808080;stroke-linejoin:miter;stroke-width:0.5;"/>
   </g>
   <g id="patch_32">
    <path d="M 223.73924 44.463422 
C 223.569933 44.460023 223.400618 44.457062 223.231296 44.454539 
C 223.061973 44.452016 222.892645 44.449931 222.723312 44.448284 
L 221.767791 142.6723 
L 223.73924 44.463422 
z
" style="fill:#00ccc0;stroke:#808080;stroke-linejoin:miter;stroke-width:0.5;"/>
   </g>
   <g id="patch_33">
    <path d="M 222.723312 44.448284 
C 222.564064 44.446735 222.404814 44.445573 222.245561 44.444798 
C 222.086307 44.444024 221.927053 44.443636 221.767798 44.443636 
L 221.767791 142.6723 
L 222.723312 44.448284 
z
" style="fill:#009eaa;stroke:#808080;stroke-linejoin:miter;stroke-width:0.5;"/>
   </g>
   <g id="matplotlib.axis_1"/>
   <g id="matplotlib.axis_2"/>
  </g>
 </g>
</svg>
