<?xml version="1.0" encoding="utf-8" standalone="no"?>
<!DOCTYPE svg PUBLIC "-//W3C//DTD SVG 1.1//EN"
  "http://www.w3.org/Graphics/SVG/1.1/DTD/svg11.dtd">
<svg height="288pt" version="1.1" viewBox="0 0 432 288" width="432pt" xmlns="http://www.w3.org/2000/svg" xmlns:xlink="http://www.w3.org/1999/xlink">
 <metadata>
  <rdf:RDF xmlns:cc="http://creativecommons.org/ns#" xmlns:dc="http://purl.org/dc/elements/1.1/" xmlns:rdf="http://www.w3.org/1999/02/22-rdf-syntax-ns#">
   <cc:Work>
    <dc:type rdf:resource="http://purl.org/dc/dcmitype/StillImage"/>
    <dc:date>2022-04-18T19:16:25.520619</dc:date>
    <dc:format>image/svg+xml</dc:format>
    <dc:creator>
     <cc:Agent>
      <dc:title>Matplotlib v3.4.3, https://matplotlib.org/</dc:title>
     </cc:Agent>
    </dc:creator>
   </cc:Work>
  </rdf:RDF>
 </metadata>
 <defs>
  <style type="text/css">*{stroke-linecap:butt;stroke-linejoin:round;}</style>
 </defs>
 <g id="figure_1">
  <g id="patch_1">
   <path d="M 0 288 
L 432 288 
L 432 0 
L 0 0 
z
" style="fill:none;"/>
  </g>
  <g id="axes_1">
   <g id="patch_2">
    <path d="M 221.032209 44.443636 
C 220.872954 44.443636 220.7137 44.444024 220.554447 44.444798 
C 220.395194 44.445573 220.235943 44.446735 220.076695 44.448284 
L 221.032209 142.6723 
L 221.032209 44.443636 
z
" style="fill:#009eaa;stroke:#808080;stroke-linejoin:miter;stroke-width:0.5;"/>
   </g>
   <g id="patch_3">
    <path d="M 220.076695 44.448284 
C 219.907362 44.449931 219.738034 44.452016 219.568712 44.454539 
C 219.399389 44.457062 219.230074 44.460023 219.060767 44.463422 
L 221.032209 142.6723 
L 220.076695 44.448284 
z
" style="fill:#00ccc0;stroke:#808080;stroke-linejoin:miter;stroke-width:0.5;"/>
   </g>
   <g id="patch_4">
    <path d="M 219.060767 44.463422 
C 218.880845 44.467033 218.700934 44.47114 218.521034 44.47574 
C 218.341135 44.480341 218.161249 44.485436 217.981377 44.491025 
L 221.032209 142.6723 
L 219.060767 44.463422 
z
" style="fill:#6d482f;stroke:#808080;stroke-linejoin:miter;stroke-width:0.5;"/>
   </g>
   <g id="patch_5">
    <path d="M 217.981377 44.491025 
C 217.784527 44.497142 217.587696 44.503851 217.390886 44.511151 
C 217.194076 44.518452 216.997288 44.526345 216.800526 44.534829 
L 221.032209 142.6723 
L 217.981377 44.491025 
z
" style="fill:#94b3ff;stroke:#808080;stroke-linejoin:miter;stroke-width:0.5;"/>
   </g>
   <g id="patch_6">
    <path d="M 216.800526 44.534829 
C 216.549667 44.545646 216.29885 44.557425 216.048082 44.570165 
C 215.797313 44.582906 215.546594 44.596608 215.295931 44.611271 
L 221.032209 142.6723 
L 216.800526 44.534829 
z
" style="fill:#515252;stroke:#808080;stroke-linejoin:miter;stroke-width:0.5;"/>
   </g>
   <g id="patch_7">
    <path d="M 215.295931 44.611271 
C 215.036788 44.62643 214.777706 44.642616 214.518692 44.659829 
C 214.259678 44.677042 214.000732 44.695282 213.741863 44.714548 
L 221.032209 142.6723 
L 215.295931 44.611271 
z
" style="fill:#fff8b8;stroke:#808080;stroke-linejoin:miter;stroke-width:0.5;"/>
   </g>
   <g id="patch_8">
    <path d="M 213.741863 44.714548 
C 213.470288 44.734759 213.198798 44.7561 212.9274 44.77857 
C 212.656003 44.801039 212.3847 44.824637 212.113498 44.849363 
L 221.032209 142.6723 
L 213.741863 44.714548 
z
" style="fill:#ffb470;stroke:#808080;stroke-linejoin:miter;stroke-width:0.5;"/>
   </g>
   <g id="patch_9">
    <path d="M 212.113498 44.849363 
C 211.797361 44.878186 211.481365 44.908541 211.165522 44.940428 
C 210.849679 44.972314 210.533992 45.005732 210.218473 45.040679 
L 221.032209 142.6723 
L 212.113498 44.849363 
z
" style="fill:#00756f;stroke:#808080;stroke-linejoin:miter;stroke-width:0.5;"/>
   </g>
   <g id="patch_10">
    <path d="M 210.218473 45.040679 
C 209.897678 45.07621 209.577059 45.113323 209.25663 45.152014 
C 208.9362 45.190706 208.615964 45.230977 208.295931 45.272826 
L 221.032209 142.6723 
L 210.218473 45.040679 
z
" style="fill:#e4abff;stroke:#808080;stroke-linejoin:miter;stroke-width:0.5;"/>
   </g>
   <g id="patch_11">
    <path d="M 208.295931 45.272826 
C 207.888521 45.3261 207.481448 45.38193 207.074739 45.440313 
C 206.668029 45.498695 206.261689 45.559629 205.855744 45.62311 
L 221.032209 142.6723 
L 208.295931 45.272826 
z
" style="fill:#9c6926;stroke:#808080;stroke-linejoin:miter;stroke-width:0.5;"/>
   </g>
   <g id="patch_12">
    <path d="M 205.855744 45.62311 
C 205.378469 45.697746 204.901752 45.775901 204.42563 45.85757 
C 203.949509 45.939239 203.473996 46.024419 202.999131 46.113103 
L 221.032209 142.6723 
L 205.855744 45.62311 
z
" style="fill:#6a5cff;stroke:#808080;stroke-linejoin:miter;stroke-width:0.5;"/>
   </g>
   <g id="patch_13">
    <path d="M 202.999131 46.113103 
C 202.462167 46.213385 201.92605 46.318144 201.390834 46.427369 
C 200.855618 46.536594 200.321323 46.650282 199.788004 46.768421 
L 221.032209 142.6723 
L 202.999131 46.113103 
z
" style="fill:#de107f;stroke:#808080;stroke-linejoin:miter;stroke-width:0.5;"/>
   </g>
   <g id="patch_14">
    <path d="M 199.788004 46.768421 
C 199.196117 46.899533 198.605457 47.036121 198.016099 47.178169 
C 197.426742 47.320217 196.838711 47.467717 196.252085 47.620652 
L 221.032209 142.6723 
L 199.788004 46.768421 
z
" style="fill:#6d001a;stroke:#808080;stroke-linejoin:miter;stroke-width:0.5;"/>
   </g>
   <g id="patch_15">
    <path d="M 196.252085 47.620652 
C 195.660834 47.774792 195.071035 47.934445 194.482764 48.099591 
C 193.894494 48.264736 193.307776 48.435367 192.722689 48.611461 
L 221.032209 142.6723 
L 196.252085 47.620652 
z
" style="fill:#898d90;stroke:#808080;stroke-linejoin:miter;stroke-width:0.5;"/>
   </g>
   <g id="patch_16">
    <path d="M 192.722689 48.611461 
C 192.113202 48.794899 191.505512 48.984256 190.899706 49.179506 
C 190.293899 49.374756 189.690005 49.575889 189.088108 49.782878 
L 221.032209 142.6723 
L 192.722689 48.611461 
z
" style="fill:#00cc78;stroke:#808080;stroke-linejoin:miter;stroke-width:0.5;"/>
   </g>
   <g id="patch_17">
    <path d="M 189.088108 49.782878 
C 188.315528 50.048563 187.546293 50.323877 186.780581 50.608755 
C 186.01487 50.893633 185.252743 51.188052 184.494377 51.491945 
L 221.032209 142.6723 
L 189.088108 49.782878 
z
" style="fill:#ffa800;stroke:#808080;stroke-linejoin:miter;stroke-width:0.5;"/>
   </g>
   <g id="patch_18">
    <path d="M 184.494377 51.491945 
C 183.680327 51.818151 182.870683 52.155245 182.065661 52.503134 
C 181.260639 52.851024 180.460312 53.209679 179.664895 53.579002 
L 221.032209 142.6723 
L 184.494377 51.491945 
z
" style="fill:#b44ac0;stroke:#808080;stroke-linejoin:miter;stroke-width:0.5;"/>
   </g>
   <g id="patch_19">
    <path d="M 179.664895 53.579002 
C 178.850218 53.957269 178.040768 54.346691 177.236773 54.747161 
C 176.432778 55.14763 175.634314 55.559108 174.841606 55.981479 
L 221.032209 142.6723 
L 179.664895 53.579002 
z
" style="fill:#493ac1;stroke:#808080;stroke-linejoin:miter;stroke-width:0.5;"/>
   </g>
   <g id="patch_20">
    <path d="M 174.841606 55.981479 
C 173.979088 56.441045 173.123477 56.913459 172.275058 57.398561 
C 171.426639 57.883663 170.585507 58.3814 169.751943 58.891606 
L 221.032209 142.6723 
L 174.841606 55.981479 
z
" style="fill:#3690ea;stroke:#808080;stroke-linejoin:miter;stroke-width:0.5;"/>
   </g>
   <g id="patch_21">
    <path d="M 169.751943 58.891606 
C 168.818764 59.462784 167.895193 60.049513 166.981616 60.651548 
C 166.06804 61.253583 165.164585 61.870839 164.271632 62.503059 
L 221.032209 142.6723 
L 169.751943 58.891606 
z
" style="fill:#00a368;stroke:#808080;stroke-linejoin:miter;stroke-width:0.5;"/>
   </g>
   <g id="patch_22">
    <path d="M 164.271632 62.503059 
C 163.204062 63.258908 162.151697 64.036006 161.115167 64.833888 
C 160.078636 65.63177 159.058146 66.450277 158.054307 67.288918 
L 221.032209 142.6723 
L 164.271632 62.503059 
z
" style="fill:#ff3881;stroke:#808080;stroke-linejoin:miter;stroke-width:0.5;"/>
   </g>
   <g id="patch_23">
    <path d="M 158.054307 67.288918 
C 156.98365 68.183383 155.93217 69.100555 154.900583 70.039812 
C 153.868996 70.979068 152.857536 71.940195 151.866892 72.922538 
L 221.032209 142.6723 
L 158.054307 67.288918 
z
" style="fill:#ffd635;stroke:#808080;stroke-linejoin:miter;stroke-width:0.5;"/>
   </g>
   <g id="patch_24">
    <path d="M 151.866892 72.922538 
C 150.745809 74.034228 149.651691 75.172784 148.585492 76.337215 
C 147.519292 77.501646 146.481322 78.691614 145.472484 79.90608 
L 221.032209 142.6723 
L 151.866892 72.922538 
z
" style="fill:#ff99aa;stroke:#808080;stroke-linejoin:miter;stroke-width:0.5;"/>
   </g>
   <g id="patch_25">
    <path d="M 145.472484 79.90608 
C 144.449059 81.138108 143.45592 82.394982 142.493958 83.675576 
C 141.531996 84.956169 140.601499 86.260099 139.703301 87.586195 
L 221.032209 142.6723 
L 145.472484 79.90608 
z
" style="fill:#2450a4;stroke:#808080;stroke-linejoin:miter;stroke-width:0.5;"/>
   </g>
   <g id="patch_26">
    <path d="M 139.703301 87.586195 
C 138.676773 89.101756 137.692809 90.645716 136.752563 92.216265 
C 135.812316 93.786813 134.916154 95.383337 134.065126 97.003966 
L 221.032209 142.6723 
L 139.703301 87.586195 
z
" style="fill:#d4d7d9;stroke:#808080;stroke-linejoin:miter;stroke-width:0.5;"/>
   </g>
   <g id="patch_27">
    <path d="M 134.065126 97.003966 
C 133.164727 98.718612 132.315235 100.459511 131.517762 102.224381 
C 130.72029 103.989251 129.975186 105.77732 129.283428 107.586242 
L 221.032209 142.6723 
L 134.065126 97.003966 
z
" style="fill:#7eed56;stroke:#808080;stroke-linejoin:miter;stroke-width:0.5;"/>
   </g>
   <g id="patch_28">
    <path d="M 129.283428 107.586242 
C 128.540842 109.528078 127.86009 111.493 127.242202 113.478038 
C 126.624314 115.463076 126.069601 117.46723 125.578901 119.487471 
L 221.032209 142.6723 
L 129.283428 107.586242 
z
" style="fill:#51e9f4;stroke:#808080;stroke-linejoin:miter;stroke-width:0.5;"/>
   </g>
   <g id="patch_29">
    <path d="M 125.578901 119.487471 
C 125.088075 121.508228 124.661543 123.544062 124.299949 125.591895 
C 123.938355 127.639728 123.641881 129.698527 123.410976 131.76518 
L 221.032209 142.6723 
L 125.578901 119.487471 
z
" style="fill:#811e9f;stroke:#808080;stroke-linejoin:miter;stroke-width:0.5;"/>
   </g>
   <g id="patch_30">
    <path d="M 123.410976 131.76518 
C 123.16598 133.957955 122.994934 136.158362 122.898131 138.362656 
C 122.801327 140.56695 122.778821 142.773881 122.83065 144.979691 
L 221.032209 142.6723 
L 123.410976 131.76518 
z
" style="fill:#be0039;stroke:#808080;stroke-linejoin:miter;stroke-width:0.5;"/>
   </g>
   <g id="patch_31">
    <path d="M 122.83065 144.979691 
C 122.93194 149.290554 123.316978 153.590073 123.983265 157.850339 
C 124.649553 162.110605 125.595644 166.322378 126.815398 170.458318 
L 221.032209 142.6723 
L 122.83065 144.979691 
z
" style="fill:#ff4500;stroke:#808080;stroke-linejoin:miter;stroke-width:0.5;"/>
   </g>
   <g id="patch_32">
    <path d="M 126.815398 170.458318 
C 133.11422 191.81636 146.492125 210.410674 164.740507 223.17146 
C 182.98889 235.932245 205.045035 242.116364 227.267616 240.702857 
L 221.032209 142.6723 
L 126.815398 170.458318 
z
" style="stroke:#808080;stroke-linejoin:miter;stroke-width:0.5;"/>
   </g>
   <g id="patch_33">
    <path d="M 227.267616 240.702857 
C 252.718922 239.083982 276.565443 227.61534 293.719352 208.74385 
C 310.87326 189.872361 320.021179 165.042904 319.211334 139.553027 
C 318.401489 114.063149 307.695884 89.864464 289.378639 72.119937 
C 271.061394 54.37541 246.534955 44.443638 221.032216 44.443636 
L 221.032209 142.6723 
L 227.267616 240.702857 
z
" style="fill:#ffffff;stroke:#808080;stroke-linejoin:miter;stroke-width:0.5;"/>
   </g>
   <g id="matplotlib.axis_1"/>
   <g id="matplotlib.axis_2"/>
  </g>
 </g>
</svg>
