<?xml version="1.0" encoding="utf-8" standalone="no"?>
<!DOCTYPE svg PUBLIC "-//W3C//DTD SVG 1.1//EN"
  "http://www.w3.org/Graphics/SVG/1.1/DTD/svg11.dtd">
<svg height="288pt" version="1.1" viewBox="0 0 432 288" width="432pt" xmlns="http://www.w3.org/2000/svg" xmlns:xlink="http://www.w3.org/1999/xlink">
 <metadata>
  <rdf:RDF xmlns:cc="http://creativecommons.org/ns#" xmlns:dc="http://purl.org/dc/elements/1.1/" xmlns:rdf="http://www.w3.org/1999/02/22-rdf-syntax-ns#">
   <cc:Work>
    <dc:type rdf:resource="http://purl.org/dc/dcmitype/StillImage"/>
    <dc:date>2022-04-18T19:15:33.713071</dc:date>
    <dc:format>image/svg+xml</dc:format>
    <dc:creator>
     <cc:Agent>
      <dc:title>Matplotlib v3.4.3, https://matplotlib.org/</dc:title>
     </cc:Agent>
    </dc:creator>
   </cc:Work>
  </rdf:RDF>
 </metadata>
 <defs>
  <style type="text/css">*{stroke-linecap:butt;stroke-linejoin:round;}</style>
 </defs>
 <g id="figure_1">
  <g id="patch_1">
   <path d="M 0 288 
L 432 288 
L 432 0 
L 0 0 
z
" style="fill:none;"/>
  </g>
  <g id="axes_1">
   <g id="patch_2">
    <path d="M 49.675 260.2 
L 416.371655 260.2 
L 416.371655 10.8 
L 49.675 10.8 
z
" style="fill:#ffffff;"/>
   </g>
   <g id="patch_3">
    <path clip-path="url(#pa438ac34c9)" d="M 66.34303 260.2 
L 74.72946 260.2 
L 74.72946 22.67619 
L 66.34303 22.67619 
z
" style="fill:#ffffff;stroke:#000000;stroke-linejoin:miter;"/>
   </g>
   <g id="patch_4">
    <path clip-path="url(#pa438ac34c9)" d="M 76.826067 260.2 
L 85.212497 260.2 
L 85.212497 156.215775 
L 76.826067 156.215775 
z
" style="stroke:#000000;stroke-linejoin:miter;"/>
   </g>
   <g id="patch_5">
    <path clip-path="url(#pa438ac34c9)" d="M 87.309105 260.2 
L 95.695535 260.2 
L 95.695535 239.882566 
L 87.309105 239.882566 
z
" style="fill:#ff4500;stroke:#000000;stroke-linejoin:miter;"/>
   </g>
   <g id="patch_6">
    <path clip-path="url(#pa438ac34c9)" d="M 97.792143 260.2 
L 106.178573 260.2 
L 106.178573 249.801077 
L 97.792143 249.801077 
z
" style="fill:#be0039;stroke:#000000;stroke-linejoin:miter;"/>
   </g>
   <g id="patch_7">
    <path clip-path="url(#pa438ac34c9)" d="M 108.27518 260.2 
L 116.66161 260.2 
L 116.66161 250.39909 
L 108.27518 250.39909 
z
" style="fill:#811e9f;stroke:#000000;stroke-linejoin:miter;"/>
   </g>
   <g id="patch_8">
    <path clip-path="url(#pa438ac34c9)" d="M 118.758218 260.2 
L 127.144648 260.2 
L 127.144648 250.401592 
L 118.758218 250.401592 
z
" style="fill:#51e9f4;stroke:#000000;stroke-linejoin:miter;"/>
   </g>
   <g id="patch_9">
    <path clip-path="url(#pa438ac34c9)" d="M 129.241255 260.2 
L 137.627685 260.2 
L 137.627685 251.072168 
L 129.241255 251.072168 
z
" style="fill:#7eed56;stroke:#000000;stroke-linejoin:miter;"/>
   </g>
   <g id="patch_10">
    <path clip-path="url(#pa438ac34c9)" d="M 139.724293 260.2 
L 148.110723 260.2 
L 148.110723 251.572597 
L 139.724293 251.572597 
z
" style="fill:#d4d7d9;stroke:#000000;stroke-linejoin:miter;"/>
   </g>
   <g id="patch_11">
    <path clip-path="url(#pa438ac34c9)" d="M 150.207331 260.2 
L 158.593761 260.2 
L 158.593761 252.651023 
L 150.207331 252.651023 
z
" style="fill:#2450a4;stroke:#000000;stroke-linejoin:miter;"/>
   </g>
   <g id="patch_12">
    <path clip-path="url(#pa438ac34c9)" d="M 160.690368 260.2 
L 169.076798 260.2 
L 169.076798 252.758615 
L 160.690368 252.758615 
z
" style="fill:#ff99aa;stroke:#000000;stroke-linejoin:miter;"/>
   </g>
   <g id="patch_13">
    <path clip-path="url(#pa438ac34c9)" d="M 171.173406 260.2 
L 179.559836 260.2 
L 179.559836 253.624358 
L 171.173406 253.624358 
z
" style="fill:#ffd635;stroke:#000000;stroke-linejoin:miter;"/>
   </g>
   <g id="patch_14">
    <path clip-path="url(#pa438ac34c9)" d="M 181.656443 260.2 
L 190.042873 260.2 
L 190.042873 254.03471 
L 181.656443 254.03471 
z
" style="fill:#ff3881;stroke:#000000;stroke-linejoin:miter;"/>
   </g>
   <g id="patch_15">
    <path clip-path="url(#pa438ac34c9)" d="M 192.139481 260.2 
L 200.525911 260.2 
L 200.525911 255.043075 
L 192.139481 255.043075 
z
" style="fill:#00a368;stroke:#000000;stroke-linejoin:miter;"/>
   </g>
   <g id="patch_16">
    <path clip-path="url(#pa438ac34c9)" d="M 202.622519 260.2 
L 211.008949 260.2 
L 211.008949 255.593547 
L 202.622519 255.593547 
z
" style="fill:#3690ea;stroke:#000000;stroke-linejoin:miter;"/>
   </g>
   <g id="patch_17">
    <path clip-path="url(#pa438ac34c9)" d="M 213.105556 260.2 
L 221.491986 260.2 
L 221.491986 255.966367 
L 213.105556 255.966367 
z
" style="fill:#493ac1;stroke:#000000;stroke-linejoin:miter;"/>
   </g>
   <g id="patch_18">
    <path clip-path="url(#pa438ac34c9)" d="M 223.588594 260.2 
L 231.975024 260.2 
L 231.975024 256.066453 
L 223.588594 256.066453 
z
" style="fill:#b44ac0;stroke:#000000;stroke-linejoin:miter;"/>
   </g>
   <g id="patch_19">
    <path clip-path="url(#pa438ac34c9)" d="M 234.071631 260.2 
L 242.458061 260.2 
L 242.458061 256.349196 
L 234.071631 256.349196 
z
" style="fill:#ffa800;stroke:#000000;stroke-linejoin:miter;"/>
   </g>
   <g id="patch_20">
    <path clip-path="url(#pa438ac34c9)" d="M 244.554669 260.2 
L 252.941099 260.2 
L 252.941099 257.199926 
L 244.554669 257.199926 
z
" style="fill:#00cc78;stroke:#000000;stroke-linejoin:miter;"/>
   </g>
   <g id="patch_21">
    <path clip-path="url(#pa438ac34c9)" d="M 255.037707 260.2 
L 263.424137 260.2 
L 263.424137 257.320029 
L 255.037707 257.320029 
z
" style="fill:#898d90;stroke:#000000;stroke-linejoin:miter;"/>
   </g>
   <g id="patch_22">
    <path clip-path="url(#pa438ac34c9)" d="M 265.520744 260.2 
L 273.907174 260.2 
L 273.907174 257.342548 
L 265.520744 257.342548 
z
" style="fill:#6d001a;stroke:#000000;stroke-linejoin:miter;"/>
   </g>
   <g id="patch_23">
    <path clip-path="url(#pa438ac34c9)" d="M 276.003782 260.2 
L 284.390212 260.2 
L 284.390212 257.625291 
L 276.003782 257.625291 
z
" style="fill:#de107f;stroke:#000000;stroke-linejoin:miter;"/>
   </g>
   <g id="patch_24">
    <path clip-path="url(#pa438ac34c9)" d="M 286.486819 260.2 
L 294.873249 260.2 
L 294.873249 257.923046 
L 286.486819 257.923046 
z
" style="fill:#6a5cff;stroke:#000000;stroke-linejoin:miter;"/>
   </g>
   <g id="patch_25">
    <path clip-path="url(#pa438ac34c9)" d="M 296.969857 260.2 
L 305.356287 260.2 
L 305.356287 258.263338 
L 296.969857 258.263338 
z
" style="fill:#9c6926;stroke:#000000;stroke-linejoin:miter;"/>
   </g>
   <g id="patch_26">
    <path clip-path="url(#pa438ac34c9)" d="M 307.452895 260.2 
L 315.839325 260.2 
L 315.839325 258.678695 
L 307.452895 258.678695 
z
" style="fill:#e4abff;stroke:#000000;stroke-linejoin:miter;"/>
   </g>
   <g id="patch_27">
    <path clip-path="url(#pa438ac34c9)" d="M 317.935932 260.2 
L 326.322362 260.2 
L 326.322362 258.703716 
L 317.935932 258.703716 
z
" style="fill:#00756f;stroke:#000000;stroke-linejoin:miter;"/>
   </g>
   <g id="patch_28">
    <path clip-path="url(#pa438ac34c9)" d="M 328.41897 260.2 
L 336.8054 260.2 
L 336.8054 258.916399 
L 328.41897 258.916399 
z
" style="fill:#ffb470;stroke:#000000;stroke-linejoin:miter;"/>
   </g>
   <g id="patch_29">
    <path clip-path="url(#pa438ac34c9)" d="M 338.902007 260.2 
L 347.288437 260.2 
L 347.288437 258.97645 
L 338.902007 258.97645 
z
" style="fill:#fff8b8;stroke:#000000;stroke-linejoin:miter;"/>
   </g>
   <g id="patch_30">
    <path clip-path="url(#pa438ac34c9)" d="M 349.385045 260.2 
L 357.771475 260.2 
L 357.771475 259.016484 
L 349.385045 259.016484 
z
" style="fill:#515252;stroke:#000000;stroke-linejoin:miter;"/>
   </g>
   <g id="patch_31">
    <path clip-path="url(#pa438ac34c9)" d="M 359.868083 260.2 
L 368.254513 260.2 
L 368.254513 259.271703 
L 359.868083 259.271703 
z
" style="fill:#94b3ff;stroke:#000000;stroke-linejoin:miter;"/>
   </g>
   <g id="patch_32">
    <path clip-path="url(#pa438ac34c9)" d="M 370.35112 260.2 
L 378.73755 260.2 
L 378.73755 259.351772 
L 370.35112 259.351772 
z
" style="fill:#6d482f;stroke:#000000;stroke-linejoin:miter;"/>
   </g>
   <g id="patch_33">
    <path clip-path="url(#pa438ac34c9)" d="M 380.834158 260.2 
L 389.220588 260.2 
L 389.220588 259.401815 
L 380.834158 259.401815 
z
" style="fill:#00ccc0;stroke:#000000;stroke-linejoin:miter;"/>
   </g>
   <g id="patch_34">
    <path clip-path="url(#pa438ac34c9)" d="M 391.317195 260.2 
L 399.703625 260.2 
L 399.703625 259.449356 
L 391.317195 259.449356 
z
" style="fill:#009eaa;stroke:#000000;stroke-linejoin:miter;"/>
   </g>
   <g id="matplotlib.axis_1">
    <g id="xtick_1">
     <g id="line2d_1">
      <defs>
       <path d="M 0 0 
L 0 3.5 
" id="me71eec12b5" style="stroke:#000000;stroke-width:0.8;"/>
      </defs>
      <g>
       <use style="stroke:#000000;stroke-width:0.8;" x="70.536245" xlink:href="#me71eec12b5" y="260.2"/>
      </g>
     </g>
     <g id="text_1">
      <!-- #FFFFFF -->
      <g transform="translate(49.091714 274.798437)scale(0.1 -0.1)">
       <defs>
        <path d="M 3272 2816 
L 2363 2816 
L 2100 1772 
L 3016 1772 
L 3272 2816 
z
M 2803 4594 
L 2478 3297 
L 3391 3297 
L 3719 4594 
L 4219 4594 
L 3897 3297 
L 4872 3297 
L 4872 2816 
L 3775 2816 
L 3519 1772 
L 4513 1772 
L 4513 1294 
L 3397 1294 
L 3072 0 
L 2572 0 
L 2894 1294 
L 1978 1294 
L 1656 0 
L 1153 0 
L 1478 1294 
L 494 1294 
L 494 1772 
L 1594 1772 
L 1856 2816 
L 850 2816 
L 850 3297 
L 1978 3297 
L 2297 4594 
L 2803 4594 
z
" id="DejaVuSans-23" transform="scale(0.015625)"/>
        <path d="M 628 4666 
L 3309 4666 
L 3309 4134 
L 1259 4134 
L 1259 2759 
L 3109 2759 
L 3109 2228 
L 1259 2228 
L 1259 0 
L 628 0 
L 628 4666 
z
" id="DejaVuSans-46" transform="scale(0.015625)"/>
       </defs>
       <use xlink:href="#DejaVuSans-23"/>
       <use x="83.789062" xlink:href="#DejaVuSans-46"/>
       <use x="141.308594" xlink:href="#DejaVuSans-46"/>
       <use x="198.828125" xlink:href="#DejaVuSans-46"/>
       <use x="256.347656" xlink:href="#DejaVuSans-46"/>
       <use x="313.867188" xlink:href="#DejaVuSans-46"/>
       <use x="371.386719" xlink:href="#DejaVuSans-46"/>
      </g>
     </g>
    </g>
    <g id="xtick_2">
     <g id="line2d_2">
      <g>
       <use style="stroke:#000000;stroke-width:0.8;" x="81.019282" xlink:href="#me71eec12b5" y="260.2"/>
      </g>
     </g>
     <g id="text_2">
      <!-- #000000 -->
      <g transform="translate(57.741939 274.798437)scale(0.1 -0.1)">
       <defs>
        <path d="M 2034 4250 
Q 1547 4250 1301 3770 
Q 1056 3291 1056 2328 
Q 1056 1369 1301 889 
Q 1547 409 2034 409 
Q 2525 409 2770 889 
Q 3016 1369 3016 2328 
Q 3016 3291 2770 3770 
Q 2525 4250 2034 4250 
z
M 2034 4750 
Q 2819 4750 3233 4129 
Q 3647 3509 3647 2328 
Q 3647 1150 3233 529 
Q 2819 -91 2034 -91 
Q 1250 -91 836 529 
Q 422 1150 422 2328 
Q 422 3509 836 4129 
Q 1250 4750 2034 4750 
z
" id="DejaVuSans-30" transform="scale(0.015625)"/>
       </defs>
       <use xlink:href="#DejaVuSans-23"/>
       <use x="83.789062" xlink:href="#DejaVuSans-30"/>
       <use x="147.412109" xlink:href="#DejaVuSans-30"/>
       <use x="211.035156" xlink:href="#DejaVuSans-30"/>
       <use x="274.658203" xlink:href="#DejaVuSans-30"/>
       <use x="338.28125" xlink:href="#DejaVuSans-30"/>
       <use x="401.904297" xlink:href="#DejaVuSans-30"/>
      </g>
     </g>
    </g>
    <g id="xtick_3">
     <g id="line2d_3">
      <g>
       <use style="stroke:#000000;stroke-width:0.8;" x="91.50232" xlink:href="#me71eec12b5" y="260.2"/>
      </g>
     </g>
     <g id="text_3">
      <!-- #FF4500 -->
      <g transform="translate(68.835914 274.798437)scale(0.1 -0.1)">
       <defs>
        <path d="M 2419 4116 
L 825 1625 
L 2419 1625 
L 2419 4116 
z
M 2253 4666 
L 3047 4666 
L 3047 1625 
L 3713 1625 
L 3713 1100 
L 3047 1100 
L 3047 0 
L 2419 0 
L 2419 1100 
L 313 1100 
L 313 1709 
L 2253 4666 
z
" id="DejaVuSans-34" transform="scale(0.015625)"/>
        <path d="M 691 4666 
L 3169 4666 
L 3169 4134 
L 1269 4134 
L 1269 2991 
Q 1406 3038 1543 3061 
Q 1681 3084 1819 3084 
Q 2600 3084 3056 2656 
Q 3513 2228 3513 1497 
Q 3513 744 3044 326 
Q 2575 -91 1722 -91 
Q 1428 -91 1123 -41 
Q 819 9 494 109 
L 494 744 
Q 775 591 1075 516 
Q 1375 441 1709 441 
Q 2250 441 2565 725 
Q 2881 1009 2881 1497 
Q 2881 1984 2565 2268 
Q 2250 2553 1709 2553 
Q 1456 2553 1204 2497 
Q 953 2441 691 2322 
L 691 4666 
z
" id="DejaVuSans-35" transform="scale(0.015625)"/>
       </defs>
       <use xlink:href="#DejaVuSans-23"/>
       <use x="83.789062" xlink:href="#DejaVuSans-46"/>
       <use x="141.308594" xlink:href="#DejaVuSans-46"/>
       <use x="198.828125" xlink:href="#DejaVuSans-34"/>
       <use x="262.451172" xlink:href="#DejaVuSans-35"/>
       <use x="326.074219" xlink:href="#DejaVuSans-30"/>
       <use x="389.697266" xlink:href="#DejaVuSans-30"/>
      </g>
     </g>
    </g>
    <g id="xtick_4">
     <g id="line2d_4">
      <g>
       <use style="stroke:#000000;stroke-width:0.8;" x="101.985358" xlink:href="#me71eec12b5" y="260.2"/>
      </g>
     </g>
     <g id="text_4">
      <!-- #BE0039 -->
      <g transform="translate(78.48067 274.798437)scale(0.1 -0.1)">
       <defs>
        <path d="M 1259 2228 
L 1259 519 
L 2272 519 
Q 2781 519 3026 730 
Q 3272 941 3272 1375 
Q 3272 1813 3026 2020 
Q 2781 2228 2272 2228 
L 1259 2228 
z
M 1259 4147 
L 1259 2741 
L 2194 2741 
Q 2656 2741 2882 2914 
Q 3109 3088 3109 3444 
Q 3109 3797 2882 3972 
Q 2656 4147 2194 4147 
L 1259 4147 
z
M 628 4666 
L 2241 4666 
Q 2963 4666 3353 4366 
Q 3744 4066 3744 3513 
Q 3744 3084 3544 2831 
Q 3344 2578 2956 2516 
Q 3422 2416 3680 2098 
Q 3938 1781 3938 1306 
Q 3938 681 3513 340 
Q 3088 0 2303 0 
L 628 0 
L 628 4666 
z
" id="DejaVuSans-42" transform="scale(0.015625)"/>
        <path d="M 628 4666 
L 3578 4666 
L 3578 4134 
L 1259 4134 
L 1259 2753 
L 3481 2753 
L 3481 2222 
L 1259 2222 
L 1259 531 
L 3634 531 
L 3634 0 
L 628 0 
L 628 4666 
z
" id="DejaVuSans-45" transform="scale(0.015625)"/>
        <path d="M 2597 2516 
Q 3050 2419 3304 2112 
Q 3559 1806 3559 1356 
Q 3559 666 3084 287 
Q 2609 -91 1734 -91 
Q 1441 -91 1130 -33 
Q 819 25 488 141 
L 488 750 
Q 750 597 1062 519 
Q 1375 441 1716 441 
Q 2309 441 2620 675 
Q 2931 909 2931 1356 
Q 2931 1769 2642 2001 
Q 2353 2234 1838 2234 
L 1294 2234 
L 1294 2753 
L 1863 2753 
Q 2328 2753 2575 2939 
Q 2822 3125 2822 3475 
Q 2822 3834 2567 4026 
Q 2313 4219 1838 4219 
Q 1578 4219 1281 4162 
Q 984 4106 628 3988 
L 628 4550 
Q 988 4650 1302 4700 
Q 1616 4750 1894 4750 
Q 2613 4750 3031 4423 
Q 3450 4097 3450 3541 
Q 3450 3153 3228 2886 
Q 3006 2619 2597 2516 
z
" id="DejaVuSans-33" transform="scale(0.015625)"/>
        <path d="M 703 97 
L 703 672 
Q 941 559 1184 500 
Q 1428 441 1663 441 
Q 2288 441 2617 861 
Q 2947 1281 2994 2138 
Q 2813 1869 2534 1725 
Q 2256 1581 1919 1581 
Q 1219 1581 811 2004 
Q 403 2428 403 3163 
Q 403 3881 828 4315 
Q 1253 4750 1959 4750 
Q 2769 4750 3195 4129 
Q 3622 3509 3622 2328 
Q 3622 1225 3098 567 
Q 2575 -91 1691 -91 
Q 1453 -91 1209 -44 
Q 966 3 703 97 
z
M 1959 2075 
Q 2384 2075 2632 2365 
Q 2881 2656 2881 3163 
Q 2881 3666 2632 3958 
Q 2384 4250 1959 4250 
Q 1534 4250 1286 3958 
Q 1038 3666 1038 3163 
Q 1038 2656 1286 2365 
Q 1534 2075 1959 2075 
z
" id="DejaVuSans-39" transform="scale(0.015625)"/>
       </defs>
       <use xlink:href="#DejaVuSans-23"/>
       <use x="83.789062" xlink:href="#DejaVuSans-42"/>
       <use x="152.392578" xlink:href="#DejaVuSans-45"/>
       <use x="215.576172" xlink:href="#DejaVuSans-30"/>
       <use x="279.199219" xlink:href="#DejaVuSans-30"/>
       <use x="342.822266" xlink:href="#DejaVuSans-33"/>
       <use x="406.445312" xlink:href="#DejaVuSans-39"/>
      </g>
     </g>
    </g>
    <g id="xtick_5">
     <g id="line2d_5">
      <g>
       <use style="stroke:#000000;stroke-width:0.8;" x="112.468395" xlink:href="#me71eec12b5" y="260.2"/>
      </g>
     </g>
     <g id="text_5">
      <!-- #811E9F -->
      <g transform="translate(89.518395 274.798437)scale(0.1 -0.1)">
       <defs>
        <path d="M 2034 2216 
Q 1584 2216 1326 1975 
Q 1069 1734 1069 1313 
Q 1069 891 1326 650 
Q 1584 409 2034 409 
Q 2484 409 2743 651 
Q 3003 894 3003 1313 
Q 3003 1734 2745 1975 
Q 2488 2216 2034 2216 
z
M 1403 2484 
Q 997 2584 770 2862 
Q 544 3141 544 3541 
Q 544 4100 942 4425 
Q 1341 4750 2034 4750 
Q 2731 4750 3128 4425 
Q 3525 4100 3525 3541 
Q 3525 3141 3298 2862 
Q 3072 2584 2669 2484 
Q 3125 2378 3379 2068 
Q 3634 1759 3634 1313 
Q 3634 634 3220 271 
Q 2806 -91 2034 -91 
Q 1263 -91 848 271 
Q 434 634 434 1313 
Q 434 1759 690 2068 
Q 947 2378 1403 2484 
z
M 1172 3481 
Q 1172 3119 1398 2916 
Q 1625 2713 2034 2713 
Q 2441 2713 2670 2916 
Q 2900 3119 2900 3481 
Q 2900 3844 2670 4047 
Q 2441 4250 2034 4250 
Q 1625 4250 1398 4047 
Q 1172 3844 1172 3481 
z
" id="DejaVuSans-38" transform="scale(0.015625)"/>
        <path d="M 794 531 
L 1825 531 
L 1825 4091 
L 703 3866 
L 703 4441 
L 1819 4666 
L 2450 4666 
L 2450 531 
L 3481 531 
L 3481 0 
L 794 0 
L 794 531 
z
" id="DejaVuSans-31" transform="scale(0.015625)"/>
       </defs>
       <use xlink:href="#DejaVuSans-23"/>
       <use x="83.789062" xlink:href="#DejaVuSans-38"/>
       <use x="147.412109" xlink:href="#DejaVuSans-31"/>
       <use x="211.035156" xlink:href="#DejaVuSans-31"/>
       <use x="274.658203" xlink:href="#DejaVuSans-45"/>
       <use x="337.841797" xlink:href="#DejaVuSans-39"/>
       <use x="401.464844" xlink:href="#DejaVuSans-46"/>
      </g>
     </g>
    </g>
    <g id="xtick_6">
     <g id="line2d_6">
      <g>
       <use style="stroke:#000000;stroke-width:0.8;" x="122.951433" xlink:href="#me71eec12b5" y="260.2"/>
      </g>
     </g>
     <g id="text_6">
      <!-- #51E9F4 -->
      <g transform="translate(100.001433 274.798437)scale(0.1 -0.1)">
       <use xlink:href="#DejaVuSans-23"/>
       <use x="83.789062" xlink:href="#DejaVuSans-35"/>
       <use x="147.412109" xlink:href="#DejaVuSans-31"/>
       <use x="211.035156" xlink:href="#DejaVuSans-45"/>
       <use x="274.21875" xlink:href="#DejaVuSans-39"/>
       <use x="337.841797" xlink:href="#DejaVuSans-46"/>
       <use x="395.361328" xlink:href="#DejaVuSans-34"/>
      </g>
     </g>
    </g>
    <g id="xtick_7">
     <g id="line2d_7">
      <g>
       <use style="stroke:#000000;stroke-width:0.8;" x="133.43447" xlink:href="#me71eec12b5" y="260.2"/>
      </g>
     </g>
     <g id="text_7">
      <!-- #7EED56 -->
      <g transform="translate(109.532127 274.798437)scale(0.1 -0.1)">
       <defs>
        <path d="M 525 4666 
L 3525 4666 
L 3525 4397 
L 1831 0 
L 1172 0 
L 2766 4134 
L 525 4134 
L 525 4666 
z
" id="DejaVuSans-37" transform="scale(0.015625)"/>
        <path d="M 1259 4147 
L 1259 519 
L 2022 519 
Q 2988 519 3436 956 
Q 3884 1394 3884 2338 
Q 3884 3275 3436 3711 
Q 2988 4147 2022 4147 
L 1259 4147 
z
M 628 4666 
L 1925 4666 
Q 3281 4666 3915 4102 
Q 4550 3538 4550 2338 
Q 4550 1131 3912 565 
Q 3275 0 1925 0 
L 628 0 
L 628 4666 
z
" id="DejaVuSans-44" transform="scale(0.015625)"/>
        <path d="M 2113 2584 
Q 1688 2584 1439 2293 
Q 1191 2003 1191 1497 
Q 1191 994 1439 701 
Q 1688 409 2113 409 
Q 2538 409 2786 701 
Q 3034 994 3034 1497 
Q 3034 2003 2786 2293 
Q 2538 2584 2113 2584 
z
M 3366 4563 
L 3366 3988 
Q 3128 4100 2886 4159 
Q 2644 4219 2406 4219 
Q 1781 4219 1451 3797 
Q 1122 3375 1075 2522 
Q 1259 2794 1537 2939 
Q 1816 3084 2150 3084 
Q 2853 3084 3261 2657 
Q 3669 2231 3669 1497 
Q 3669 778 3244 343 
Q 2819 -91 2113 -91 
Q 1303 -91 875 529 
Q 447 1150 447 2328 
Q 447 3434 972 4092 
Q 1497 4750 2381 4750 
Q 2619 4750 2861 4703 
Q 3103 4656 3366 4563 
z
" id="DejaVuSans-36" transform="scale(0.015625)"/>
       </defs>
       <use xlink:href="#DejaVuSans-23"/>
       <use x="83.789062" xlink:href="#DejaVuSans-37"/>
       <use x="147.412109" xlink:href="#DejaVuSans-45"/>
       <use x="210.595703" xlink:href="#DejaVuSans-45"/>
       <use x="273.779297" xlink:href="#DejaVuSans-44"/>
       <use x="350.78125" xlink:href="#DejaVuSans-35"/>
       <use x="414.404297" xlink:href="#DejaVuSans-36"/>
      </g>
     </g>
    </g>
    <g id="xtick_8">
     <g id="line2d_8">
      <g>
       <use style="stroke:#000000;stroke-width:0.8;" x="143.917508" xlink:href="#me71eec12b5" y="260.2"/>
      </g>
     </g>
     <g id="text_8">
      <!-- #D4D7D9 -->
      <g transform="translate(118.633914 274.798437)scale(0.1 -0.1)">
       <use xlink:href="#DejaVuSans-23"/>
       <use x="83.789062" xlink:href="#DejaVuSans-44"/>
       <use x="160.791016" xlink:href="#DejaVuSans-34"/>
       <use x="224.414062" xlink:href="#DejaVuSans-44"/>
       <use x="301.416016" xlink:href="#DejaVuSans-37"/>
       <use x="365.039062" xlink:href="#DejaVuSans-44"/>
       <use x="442.041016" xlink:href="#DejaVuSans-39"/>
      </g>
     </g>
    </g>
    <g id="xtick_9">
     <g id="line2d_9">
      <g>
       <use style="stroke:#000000;stroke-width:0.8;" x="154.400546" xlink:href="#me71eec12b5" y="260.2"/>
      </g>
     </g>
     <g id="text_9">
      <!-- #2450A4 -->
      <g transform="translate(130.884139 274.798437)scale(0.1 -0.1)">
       <defs>
        <path d="M 1228 531 
L 3431 531 
L 3431 0 
L 469 0 
L 469 531 
Q 828 903 1448 1529 
Q 2069 2156 2228 2338 
Q 2531 2678 2651 2914 
Q 2772 3150 2772 3378 
Q 2772 3750 2511 3984 
Q 2250 4219 1831 4219 
Q 1534 4219 1204 4116 
Q 875 4013 500 3803 
L 500 4441 
Q 881 4594 1212 4672 
Q 1544 4750 1819 4750 
Q 2544 4750 2975 4387 
Q 3406 4025 3406 3419 
Q 3406 3131 3298 2873 
Q 3191 2616 2906 2266 
Q 2828 2175 2409 1742 
Q 1991 1309 1228 531 
z
" id="DejaVuSans-32" transform="scale(0.015625)"/>
        <path d="M 2188 4044 
L 1331 1722 
L 3047 1722 
L 2188 4044 
z
M 1831 4666 
L 2547 4666 
L 4325 0 
L 3669 0 
L 3244 1197 
L 1141 1197 
L 716 0 
L 50 0 
L 1831 4666 
z
" id="DejaVuSans-41" transform="scale(0.015625)"/>
       </defs>
       <use xlink:href="#DejaVuSans-23"/>
       <use x="83.789062" xlink:href="#DejaVuSans-32"/>
       <use x="147.412109" xlink:href="#DejaVuSans-34"/>
       <use x="211.035156" xlink:href="#DejaVuSans-35"/>
       <use x="274.658203" xlink:href="#DejaVuSans-30"/>
       <use x="338.28125" xlink:href="#DejaVuSans-41"/>
       <use x="406.689453" xlink:href="#DejaVuSans-34"/>
      </g>
     </g>
    </g>
    <g id="xtick_10">
     <g id="line2d_10">
      <g>
       <use style="stroke:#000000;stroke-width:0.8;" x="164.883583" xlink:href="#me71eec12b5" y="260.2"/>
      </g>
     </g>
     <g id="text_10">
      <!-- #FF99AA -->
      <g transform="translate(141.601552 274.798437)scale(0.1 -0.1)">
       <use xlink:href="#DejaVuSans-23"/>
       <use x="83.789062" xlink:href="#DejaVuSans-46"/>
       <use x="141.308594" xlink:href="#DejaVuSans-46"/>
       <use x="198.828125" xlink:href="#DejaVuSans-39"/>
       <use x="262.451172" xlink:href="#DejaVuSans-39"/>
       <use x="326.074219" xlink:href="#DejaVuSans-41"/>
       <use x="397.232422" xlink:href="#DejaVuSans-41"/>
      </g>
     </g>
    </g>
    <g id="xtick_11">
     <g id="line2d_11">
      <g>
       <use style="stroke:#000000;stroke-width:0.8;" x="175.366621" xlink:href="#me71eec12b5" y="260.2"/>
      </g>
     </g>
     <g id="text_11">
      <!-- #FFD635 -->
      <g transform="translate(152.031465 274.798437)scale(0.1 -0.1)">
       <use xlink:href="#DejaVuSans-23"/>
       <use x="83.789062" xlink:href="#DejaVuSans-46"/>
       <use x="141.308594" xlink:href="#DejaVuSans-46"/>
       <use x="198.828125" xlink:href="#DejaVuSans-44"/>
       <use x="275.830078" xlink:href="#DejaVuSans-36"/>
       <use x="339.453125" xlink:href="#DejaVuSans-33"/>
       <use x="403.076172" xlink:href="#DejaVuSans-35"/>
      </g>
     </g>
    </g>
    <g id="xtick_12">
     <g id="line2d_12">
      <g>
       <use style="stroke:#000000;stroke-width:0.8;" x="185.849658" xlink:href="#me71eec12b5" y="260.2"/>
      </g>
     </g>
     <g id="text_12">
      <!-- #FF3881 -->
      <g transform="translate(163.183252 274.798437)scale(0.1 -0.1)">
       <use xlink:href="#DejaVuSans-23"/>
       <use x="83.789062" xlink:href="#DejaVuSans-46"/>
       <use x="141.308594" xlink:href="#DejaVuSans-46"/>
       <use x="198.828125" xlink:href="#DejaVuSans-33"/>
       <use x="262.451172" xlink:href="#DejaVuSans-38"/>
       <use x="326.074219" xlink:href="#DejaVuSans-38"/>
       <use x="389.697266" xlink:href="#DejaVuSans-31"/>
      </g>
     </g>
    </g>
    <g id="xtick_13">
     <g id="line2d_13">
      <g>
       <use style="stroke:#000000;stroke-width:0.8;" x="196.332696" xlink:href="#me71eec12b5" y="260.2"/>
      </g>
     </g>
     <g id="text_13">
      <!-- #00A368 -->
      <g transform="translate(172.81629 274.798437)scale(0.1 -0.1)">
       <use xlink:href="#DejaVuSans-23"/>
       <use x="83.789062" xlink:href="#DejaVuSans-30"/>
       <use x="147.412109" xlink:href="#DejaVuSans-30"/>
       <use x="211.035156" xlink:href="#DejaVuSans-41"/>
       <use x="279.443359" xlink:href="#DejaVuSans-33"/>
       <use x="343.066406" xlink:href="#DejaVuSans-36"/>
       <use x="406.689453" xlink:href="#DejaVuSans-38"/>
      </g>
     </g>
    </g>
    <g id="xtick_14">
     <g id="line2d_14">
      <g>
       <use style="stroke:#000000;stroke-width:0.8;" x="206.815734" xlink:href="#me71eec12b5" y="260.2"/>
      </g>
     </g>
     <g id="text_14">
      <!-- #3690EA -->
      <g transform="translate(183.321202 274.798437)scale(0.1 -0.1)">
       <use xlink:href="#DejaVuSans-23"/>
       <use x="83.789062" xlink:href="#DejaVuSans-33"/>
       <use x="147.412109" xlink:href="#DejaVuSans-36"/>
       <use x="211.035156" xlink:href="#DejaVuSans-39"/>
       <use x="274.658203" xlink:href="#DejaVuSans-30"/>
       <use x="338.28125" xlink:href="#DejaVuSans-45"/>
       <use x="401.464844" xlink:href="#DejaVuSans-41"/>
      </g>
     </g>
    </g>
    <g id="xtick_15">
     <g id="line2d_15">
      <g>
       <use style="stroke:#000000;stroke-width:0.8;" x="217.298771" xlink:href="#me71eec12b5" y="260.2"/>
      </g>
     </g>
     <g id="text_15">
      <!-- #493AC1 -->
      <g transform="translate(193.559709 274.798437)scale(0.1 -0.1)">
       <defs>
        <path d="M 4122 4306 
L 4122 3641 
Q 3803 3938 3442 4084 
Q 3081 4231 2675 4231 
Q 1875 4231 1450 3742 
Q 1025 3253 1025 2328 
Q 1025 1406 1450 917 
Q 1875 428 2675 428 
Q 3081 428 3442 575 
Q 3803 722 4122 1019 
L 4122 359 
Q 3791 134 3420 21 
Q 3050 -91 2638 -91 
Q 1578 -91 968 557 
Q 359 1206 359 2328 
Q 359 3453 968 4101 
Q 1578 4750 2638 4750 
Q 3056 4750 3426 4639 
Q 3797 4528 4122 4306 
z
" id="DejaVuSans-43" transform="scale(0.015625)"/>
       </defs>
       <use xlink:href="#DejaVuSans-23"/>
       <use x="83.789062" xlink:href="#DejaVuSans-34"/>
       <use x="147.412109" xlink:href="#DejaVuSans-39"/>
       <use x="211.035156" xlink:href="#DejaVuSans-33"/>
       <use x="274.658203" xlink:href="#DejaVuSans-41"/>
       <use x="341.316406" xlink:href="#DejaVuSans-43"/>
       <use x="411.140625" xlink:href="#DejaVuSans-31"/>
      </g>
     </g>
    </g>
    <g id="xtick_16">
     <g id="line2d_16">
      <g>
       <use style="stroke:#000000;stroke-width:0.8;" x="227.781809" xlink:href="#me71eec12b5" y="260.2"/>
      </g>
     </g>
     <g id="text_16">
      <!-- #B44AC0 -->
      <g transform="translate(203.793528 274.798437)scale(0.1 -0.1)">
       <use xlink:href="#DejaVuSans-23"/>
       <use x="83.789062" xlink:href="#DejaVuSans-42"/>
       <use x="152.392578" xlink:href="#DejaVuSans-34"/>
       <use x="216.015625" xlink:href="#DejaVuSans-34"/>
       <use x="279.638672" xlink:href="#DejaVuSans-41"/>
       <use x="346.296875" xlink:href="#DejaVuSans-43"/>
       <use x="416.121094" xlink:href="#DejaVuSans-30"/>
      </g>
     </g>
    </g>
    <g id="xtick_17">
     <g id="line2d_17">
      <g>
       <use style="stroke:#000000;stroke-width:0.8;" x="238.264846" xlink:href="#me71eec12b5" y="260.2"/>
      </g>
     </g>
     <g id="text_17">
      <!-- #FFA800 -->
      <g transform="translate(215.815628 274.798437)scale(0.1 -0.1)">
       <use xlink:href="#DejaVuSans-23"/>
       <use x="83.789062" xlink:href="#DejaVuSans-46"/>
       <use x="141.308594" xlink:href="#DejaVuSans-46"/>
       <use x="189.703125" xlink:href="#DejaVuSans-41"/>
       <use x="258.111328" xlink:href="#DejaVuSans-38"/>
       <use x="321.734375" xlink:href="#DejaVuSans-30"/>
       <use x="385.357422" xlink:href="#DejaVuSans-30"/>
      </g>
     </g>
    </g>
    <g id="xtick_18">
     <g id="line2d_18">
      <g>
       <use style="stroke:#000000;stroke-width:0.8;" x="248.747884" xlink:href="#me71eec12b5" y="260.2"/>
      </g>
     </g>
     <g id="text_18">
      <!-- #00CC78 -->
      <g transform="translate(224.850228 274.798437)scale(0.1 -0.1)">
       <use xlink:href="#DejaVuSans-23"/>
       <use x="83.789062" xlink:href="#DejaVuSans-30"/>
       <use x="147.412109" xlink:href="#DejaVuSans-30"/>
       <use x="211.035156" xlink:href="#DejaVuSans-43"/>
       <use x="280.859375" xlink:href="#DejaVuSans-43"/>
       <use x="350.683594" xlink:href="#DejaVuSans-37"/>
       <use x="414.306641" xlink:href="#DejaVuSans-38"/>
      </g>
     </g>
    </g>
    <g id="xtick_19">
     <g id="line2d_19">
      <g>
       <use style="stroke:#000000;stroke-width:0.8;" x="259.230922" xlink:href="#me71eec12b5" y="260.2"/>
      </g>
     </g>
     <g id="text_19">
      <!-- #898D90 -->
      <g transform="translate(235.284828 274.798437)scale(0.1 -0.1)">
       <use xlink:href="#DejaVuSans-23"/>
       <use x="83.789062" xlink:href="#DejaVuSans-38"/>
       <use x="147.412109" xlink:href="#DejaVuSans-39"/>
       <use x="211.035156" xlink:href="#DejaVuSans-38"/>
       <use x="274.658203" xlink:href="#DejaVuSans-44"/>
       <use x="351.660156" xlink:href="#DejaVuSans-39"/>
       <use x="415.283203" xlink:href="#DejaVuSans-30"/>
      </g>
     </g>
    </g>
    <g id="xtick_20">
     <g id="line2d_20">
      <g>
       <use style="stroke:#000000;stroke-width:0.8;" x="269.713959" xlink:href="#me71eec12b5" y="260.2"/>
      </g>
     </g>
     <g id="text_20">
      <!-- #6D001A -->
      <g transform="translate(245.528803 274.798437)scale(0.1 -0.1)">
       <use xlink:href="#DejaVuSans-23"/>
       <use x="83.789062" xlink:href="#DejaVuSans-36"/>
       <use x="147.412109" xlink:href="#DejaVuSans-44"/>
       <use x="224.414062" xlink:href="#DejaVuSans-30"/>
       <use x="288.037109" xlink:href="#DejaVuSans-30"/>
       <use x="351.660156" xlink:href="#DejaVuSans-31"/>
       <use x="415.283203" xlink:href="#DejaVuSans-41"/>
      </g>
     </g>
    </g>
    <g id="xtick_21">
     <g id="line2d_21">
      <g>
       <use style="stroke:#000000;stroke-width:0.8;" x="280.196997" xlink:href="#me71eec12b5" y="260.2"/>
      </g>
     </g>
     <g id="text_21">
      <!-- #DE107F -->
      <g transform="translate(256.578247 274.798437)scale(0.1 -0.1)">
       <use xlink:href="#DejaVuSans-23"/>
       <use x="83.789062" xlink:href="#DejaVuSans-44"/>
       <use x="160.791016" xlink:href="#DejaVuSans-45"/>
       <use x="223.974609" xlink:href="#DejaVuSans-31"/>
       <use x="287.597656" xlink:href="#DejaVuSans-30"/>
       <use x="351.220703" xlink:href="#DejaVuSans-37"/>
       <use x="414.84375" xlink:href="#DejaVuSans-46"/>
      </g>
     </g>
    </g>
    <g id="xtick_22">
     <g id="line2d_22">
      <g>
       <use style="stroke:#000000;stroke-width:0.8;" x="290.680034" xlink:href="#me71eec12b5" y="260.2"/>
      </g>
     </g>
     <g id="text_22">
      <!-- #6A5CFF -->
      <g transform="translate(267.464409 274.798437)scale(0.1 -0.1)">
       <use xlink:href="#DejaVuSans-23"/>
       <use x="83.789062" xlink:href="#DejaVuSans-36"/>
       <use x="147.412109" xlink:href="#DejaVuSans-41"/>
       <use x="215.820312" xlink:href="#DejaVuSans-35"/>
       <use x="279.443359" xlink:href="#DejaVuSans-43"/>
       <use x="349.267578" xlink:href="#DejaVuSans-46"/>
       <use x="406.787109" xlink:href="#DejaVuSans-46"/>
      </g>
     </g>
    </g>
    <g id="xtick_23">
     <g id="line2d_23">
      <g>
       <use style="stroke:#000000;stroke-width:0.8;" x="301.163072" xlink:href="#me71eec12b5" y="260.2"/>
      </g>
     </g>
     <g id="text_23">
      <!-- #9C6926 -->
      <g transform="translate(277.575572 274.798437)scale(0.1 -0.1)">
       <use xlink:href="#DejaVuSans-23"/>
       <use x="83.789062" xlink:href="#DejaVuSans-39"/>
       <use x="147.412109" xlink:href="#DejaVuSans-43"/>
       <use x="217.236328" xlink:href="#DejaVuSans-36"/>
       <use x="280.859375" xlink:href="#DejaVuSans-39"/>
       <use x="344.482422" xlink:href="#DejaVuSans-32"/>
       <use x="408.105469" xlink:href="#DejaVuSans-36"/>
      </g>
     </g>
    </g>
    <g id="xtick_24">
     <g id="line2d_24">
      <g>
       <use style="stroke:#000000;stroke-width:0.8;" x="311.64611" xlink:href="#me71eec12b5" y="260.2"/>
      </g>
     </g>
     <g id="text_24">
      <!-- #E4ABFF -->
      <g transform="translate(288.513297 274.798437)scale(0.1 -0.1)">
       <use xlink:href="#DejaVuSans-23"/>
       <use x="83.789062" xlink:href="#DejaVuSans-45"/>
       <use x="146.972656" xlink:href="#DejaVuSans-34"/>
       <use x="210.595703" xlink:href="#DejaVuSans-41"/>
       <use x="279.003906" xlink:href="#DejaVuSans-42"/>
       <use x="347.607422" xlink:href="#DejaVuSans-46"/>
       <use x="405.126953" xlink:href="#DejaVuSans-46"/>
      </g>
     </g>
    </g>
    <g id="xtick_25">
     <g id="line2d_25">
      <g>
       <use style="stroke:#000000;stroke-width:0.8;" x="322.129147" xlink:href="#me71eec12b5" y="260.2"/>
      </g>
     </g>
     <g id="text_25">
      <!-- #00756F -->
      <g transform="translate(299.157272 274.798437)scale(0.1 -0.1)">
       <use xlink:href="#DejaVuSans-23"/>
       <use x="83.789062" xlink:href="#DejaVuSans-30"/>
       <use x="147.412109" xlink:href="#DejaVuSans-30"/>
       <use x="211.035156" xlink:href="#DejaVuSans-37"/>
       <use x="274.658203" xlink:href="#DejaVuSans-35"/>
       <use x="338.28125" xlink:href="#DejaVuSans-36"/>
       <use x="401.904297" xlink:href="#DejaVuSans-46"/>
      </g>
     </g>
    </g>
    <g id="xtick_26">
     <g id="line2d_26">
      <g>
       <use style="stroke:#000000;stroke-width:0.8;" x="332.612185" xlink:href="#me71eec12b5" y="260.2"/>
      </g>
     </g>
     <g id="text_26">
      <!-- #FFB470 -->
      <g transform="translate(309.69656 274.798437)scale(0.1 -0.1)">
       <use xlink:href="#DejaVuSans-23"/>
       <use x="83.789062" xlink:href="#DejaVuSans-46"/>
       <use x="141.308594" xlink:href="#DejaVuSans-46"/>
       <use x="198.828125" xlink:href="#DejaVuSans-42"/>
       <use x="267.431641" xlink:href="#DejaVuSans-34"/>
       <use x="331.054688" xlink:href="#DejaVuSans-37"/>
       <use x="394.677734" xlink:href="#DejaVuSans-30"/>
      </g>
     </g>
    </g>
    <g id="xtick_27">
     <g id="line2d_27">
      <g>
       <use style="stroke:#000000;stroke-width:0.8;" x="343.095222" xlink:href="#me71eec12b5" y="260.2"/>
      </g>
     </g>
     <g id="text_27">
      <!-- #FFF8B8 -->
      <g transform="translate(320.485066 274.798437)scale(0.1 -0.1)">
       <use xlink:href="#DejaVuSans-23"/>
       <use x="83.789062" xlink:href="#DejaVuSans-46"/>
       <use x="141.308594" xlink:href="#DejaVuSans-46"/>
       <use x="198.828125" xlink:href="#DejaVuSans-46"/>
       <use x="256.347656" xlink:href="#DejaVuSans-38"/>
       <use x="319.970703" xlink:href="#DejaVuSans-42"/>
       <use x="388.574219" xlink:href="#DejaVuSans-38"/>
      </g>
     </g>
    </g>
    <g id="xtick_28">
     <g id="line2d_28">
      <g>
       <use style="stroke:#000000;stroke-width:0.8;" x="353.57826" xlink:href="#me71eec12b5" y="260.2"/>
      </g>
     </g>
     <g id="text_28">
      <!-- #515252 -->
      <g transform="translate(330.300916 274.798437)scale(0.1 -0.1)">
       <use xlink:href="#DejaVuSans-23"/>
       <use x="83.789062" xlink:href="#DejaVuSans-35"/>
       <use x="147.412109" xlink:href="#DejaVuSans-31"/>
       <use x="211.035156" xlink:href="#DejaVuSans-35"/>
       <use x="274.658203" xlink:href="#DejaVuSans-32"/>
       <use x="338.28125" xlink:href="#DejaVuSans-35"/>
       <use x="401.904297" xlink:href="#DejaVuSans-32"/>
      </g>
     </g>
    </g>
    <g id="xtick_29">
     <g id="line2d_29">
      <g>
       <use style="stroke:#000000;stroke-width:0.8;" x="364.061298" xlink:href="#me71eec12b5" y="260.2"/>
      </g>
     </g>
     <g id="text_29">
      <!-- #94B3FF -->
      <g transform="translate(341.145673 274.798437)scale(0.1 -0.1)">
       <use xlink:href="#DejaVuSans-23"/>
       <use x="83.789062" xlink:href="#DejaVuSans-39"/>
       <use x="147.412109" xlink:href="#DejaVuSans-34"/>
       <use x="211.035156" xlink:href="#DejaVuSans-42"/>
       <use x="279.638672" xlink:href="#DejaVuSans-33"/>
       <use x="343.261719" xlink:href="#DejaVuSans-46"/>
       <use x="400.78125" xlink:href="#DejaVuSans-46"/>
      </g>
     </g>
    </g>
    <g id="xtick_30">
     <g id="line2d_30">
      <g>
       <use style="stroke:#000000;stroke-width:0.8;" x="374.544335" xlink:href="#me71eec12b5" y="260.2"/>
      </g>
     </g>
     <g id="text_30">
      <!-- #6D482F -->
      <g transform="translate(350.90371 274.798437)scale(0.1 -0.1)">
       <use xlink:href="#DejaVuSans-23"/>
       <use x="83.789062" xlink:href="#DejaVuSans-36"/>
       <use x="147.412109" xlink:href="#DejaVuSans-44"/>
       <use x="224.414062" xlink:href="#DejaVuSans-34"/>
       <use x="288.037109" xlink:href="#DejaVuSans-38"/>
       <use x="351.660156" xlink:href="#DejaVuSans-32"/>
       <use x="415.283203" xlink:href="#DejaVuSans-46"/>
      </g>
     </g>
    </g>
    <g id="xtick_31">
     <g id="line2d_31">
      <g>
       <use style="stroke:#000000;stroke-width:0.8;" x="385.027373" xlink:href="#me71eec12b5" y="260.2"/>
      </g>
     </g>
     <g id="text_31">
      <!-- #00CCC0 -->
      <g transform="translate(360.81956 274.798437)scale(0.1 -0.1)">
       <use xlink:href="#DejaVuSans-23"/>
       <use x="83.789062" xlink:href="#DejaVuSans-30"/>
       <use x="147.412109" xlink:href="#DejaVuSans-30"/>
       <use x="211.035156" xlink:href="#DejaVuSans-43"/>
       <use x="280.859375" xlink:href="#DejaVuSans-43"/>
       <use x="350.683594" xlink:href="#DejaVuSans-43"/>
       <use x="420.507812" xlink:href="#DejaVuSans-30"/>
      </g>
     </g>
    </g>
    <g id="xtick_32">
     <g id="line2d_32">
      <g>
       <use style="stroke:#000000;stroke-width:0.8;" x="395.51041" xlink:href="#me71eec12b5" y="260.2"/>
      </g>
     </g>
     <g id="text_32">
      <!-- #009EAA -->
      <g transform="translate(371.639317 274.798437)scale(0.1 -0.1)">
       <use xlink:href="#DejaVuSans-23"/>
       <use x="83.789062" xlink:href="#DejaVuSans-30"/>
       <use x="147.412109" xlink:href="#DejaVuSans-30"/>
       <use x="211.035156" xlink:href="#DejaVuSans-39"/>
       <use x="274.658203" xlink:href="#DejaVuSans-45"/>
       <use x="337.841797" xlink:href="#DejaVuSans-41"/>
       <use x="409" xlink:href="#DejaVuSans-41"/>
      </g>
     </g>
    </g>
   </g>
   <g id="matplotlib.axis_2">
    <g id="ytick_1">
     <g id="line2d_33">
      <defs>
       <path d="M 0 0 
L -3.5 0 
" id="mdbe004389d" style="stroke:#000000;stroke-width:0.8;"/>
      </defs>
      <g>
       <use style="stroke:#000000;stroke-width:0.8;" x="49.675" xlink:href="#mdbe004389d" y="260.2"/>
      </g>
     </g>
     <g id="text_33">
      <!-- 0 -->
      <g transform="translate(36.3125 263.999219)scale(0.1 -0.1)">
       <use xlink:href="#DejaVuSans-30"/>
      </g>
     </g>
    </g>
    <g id="ytick_2">
     <g id="line2d_34">
      <g>
       <use style="stroke:#000000;stroke-width:0.8;" x="49.675" xlink:href="#mdbe004389d" y="210.15706"/>
      </g>
     </g>
     <g id="text_34">
      <!-- 20000 -->
      <g transform="translate(10.8625 213.956279)scale(0.1 -0.1)">
       <use xlink:href="#DejaVuSans-32"/>
       <use x="63.623047" xlink:href="#DejaVuSans-30"/>
       <use x="127.246094" xlink:href="#DejaVuSans-30"/>
       <use x="190.869141" xlink:href="#DejaVuSans-30"/>
       <use x="254.492188" xlink:href="#DejaVuSans-30"/>
      </g>
     </g>
    </g>
    <g id="ytick_3">
     <g id="line2d_35">
      <g>
       <use style="stroke:#000000;stroke-width:0.8;" x="49.675" xlink:href="#mdbe004389d" y="160.11412"/>
      </g>
     </g>
     <g id="text_35">
      <!-- 40000 -->
      <g transform="translate(10.8625 163.913339)scale(0.1 -0.1)">
       <use xlink:href="#DejaVuSans-34"/>
       <use x="63.623047" xlink:href="#DejaVuSans-30"/>
       <use x="127.246094" xlink:href="#DejaVuSans-30"/>
       <use x="190.869141" xlink:href="#DejaVuSans-30"/>
       <use x="254.492188" xlink:href="#DejaVuSans-30"/>
      </g>
     </g>
    </g>
    <g id="ytick_4">
     <g id="line2d_36">
      <g>
       <use style="stroke:#000000;stroke-width:0.8;" x="49.675" xlink:href="#mdbe004389d" y="110.071181"/>
      </g>
     </g>
     <g id="text_36">
      <!-- 60000 -->
      <g transform="translate(10.8625 113.870399)scale(0.1 -0.1)">
       <use xlink:href="#DejaVuSans-36"/>
       <use x="63.623047" xlink:href="#DejaVuSans-30"/>
       <use x="127.246094" xlink:href="#DejaVuSans-30"/>
       <use x="190.869141" xlink:href="#DejaVuSans-30"/>
       <use x="254.492188" xlink:href="#DejaVuSans-30"/>
      </g>
     </g>
    </g>
    <g id="ytick_5">
     <g id="line2d_37">
      <g>
       <use style="stroke:#000000;stroke-width:0.8;" x="49.675" xlink:href="#mdbe004389d" y="60.028241"/>
      </g>
     </g>
     <g id="text_37">
      <!-- 80000 -->
      <g transform="translate(10.8625 63.82746)scale(0.1 -0.1)">
       <use xlink:href="#DejaVuSans-38"/>
       <use x="63.623047" xlink:href="#DejaVuSans-30"/>
       <use x="127.246094" xlink:href="#DejaVuSans-30"/>
       <use x="190.869141" xlink:href="#DejaVuSans-30"/>
       <use x="254.492188" xlink:href="#DejaVuSans-30"/>
      </g>
     </g>
    </g>
   </g>
   <g id="patch_35">
    <path d="M 49.675 260.2 
L 49.675 10.8 
" style="fill:none;stroke:#000000;stroke-linecap:square;stroke-linejoin:miter;stroke-width:0.8;"/>
   </g>
   <g id="patch_36">
    <path d="M 416.371655 260.2 
L 416.371655 10.8 
" style="fill:none;stroke:#000000;stroke-linecap:square;stroke-linejoin:miter;stroke-width:0.8;"/>
   </g>
   <g id="patch_37">
    <path d="M 49.675 260.2 
L 416.371655 260.2 
" style="fill:none;stroke:#000000;stroke-linecap:square;stroke-linejoin:miter;stroke-width:0.8;"/>
   </g>
   <g id="patch_38">
    <path d="M 49.675 10.8 
L 416.371655 10.8 
" style="fill:none;stroke:#000000;stroke-linecap:square;stroke-linejoin:miter;stroke-width:0.8;"/>
   </g>
  </g>
 </g>
 <defs>
  <clipPath id="pa438ac34c9">
   <rect height="249.4" width="366.696655" x="49.675" y="10.8"/>
  </clipPath>
 </defs>
</svg>
